HIERARCHY
ROOT Pelvis
{
	OFFSET 0.000000 0.000000 0.000000
	CHANNELS 6 Xposition Yposition Zposition Xrotation Yrotation Zrotation
	JOINT LeftUpLeg_virtual
	{
		OFFSET 0.000000 0.000000 0.000000
		CHANNELS 3 Xrotation Yrotation Zrotation
		JOINT LeftUpLeg
		{
			OFFSET 18.735201 -5.666702 -4.541200
			CHANNELS 3 Xrotation Yrotation Zrotation
			JOINT LeftLeg
			{
				OFFSET -0.021200 -31.938179 0.493100
				CHANNELS 3 Xrotation Yrotation Zrotation
				JOINT LeftFoot
				{
					OFFSET 0.021200 -31.938179 -4.336299
					CHANNELS 3 Xrotation Yrotation Zrotation
					JOINT LeftToeBase
					{
						OFFSET 0.943001 -26.722000 15.023500
						CHANNELS 3 Xrotation Yrotation Zrotation
						End Site
						{
							OFFSET 0 0 0
						}
					}
				}
			}
		}
	}
	JOINT RightUpLeg_virtual
	{
		OFFSET 0.000000 0.000000 0.000000
		CHANNELS 3 Xrotation Yrotation Zrotation
		JOINT RightUpLeg
		{
			OFFSET -18.735201 -5.666702 -4.541200
			CHANNELS 3 Xrotation Yrotation Zrotation
			JOINT RightLeg
			{
				OFFSET 0.018946 -31.938133 0.493100
				CHANNELS 3 Xrotation Yrotation Zrotation
				JOINT RightFoot
				{
					OFFSET -0.018946 -31.938126 -4.336299
					CHANNELS 3 Xrotation Yrotation Zrotation
					JOINT RightToeBase
					{
						OFFSET -0.943001 -26.722004 15.023500
						CHANNELS 3 Xrotation Yrotation Zrotation
						End Site
						{
							OFFSET 0 0 0
						}
					}
				}
			}
		}
	}
	JOINT Hips_virtual
	{
		OFFSET 0.000000 0.000000 0.000000
		CHANNELS 3 Xrotation Yrotation Zrotation
		JOINT Hips
		{
			OFFSET -0.000000 -0.000000 -0.000000
			CHANNELS 3 Xrotation Yrotation Zrotation
			JOINT Spine
			{
				OFFSET 0.000000 10.199997 -0.299500
				CHANNELS 3 Xrotation Yrotation Zrotation
				JOINT Spine1
				{
					OFFSET 0.000000 11.900002 -1.516600
					CHANNELS 3 Xrotation Yrotation Zrotation
					JOINT Spine2
					{
						OFFSET 0.000000 13.600006 -2.842500
						CHANNELS 3 Xrotation Yrotation Zrotation
						JOINT Neck_virtual
						{
							OFFSET 0.000000 0.000000 0.000000
							CHANNELS 3 Xrotation Yrotation Zrotation
							JOINT Neck
							{
								OFFSET 0.000000 9.624100 -2.890100
								CHANNELS 3 Xrotation Yrotation Zrotation
								JOINT Head
								{
									OFFSET 0.000000 14.068802 -1.351900
									CHANNELS 3 Xrotation Yrotation Zrotation
									End Site
									{
										OFFSET 0 0 0
									}
								}
							}
						}
						JOINT LeftShoulder_virtual
						{
							OFFSET 0.000000 0.000000 0.000000
							CHANNELS 3 Xrotation Yrotation Zrotation
							JOINT LeftShoulder
							{
								OFFSET 15.263000 10.923401 -0.547700
								CHANNELS 3 Xrotation Yrotation Zrotation
								JOINT LeftArm
								{
									OFFSET 25.438599 -2.830597 -13.032500
									CHANNELS 3 Xrotation Yrotation Zrotation
									JOINT LeftForeArm
									{
										OFFSET 29.960503 0.000000 0.000000
										CHANNELS 3 Xrotation Yrotation Zrotation
										JOINT LeftHand
										{
											OFFSET 27.849251 0.000000 0.000000
											CHANNELS 3 Xrotation Yrotation Zrotation
											End Site
											{
												OFFSET 0 0 0
											}
										}
									}
								}
							}
						}
						JOINT RightShoulder_virtual
						{
							OFFSET 0.000000 0.000000 0.000000
							CHANNELS 3 Xrotation Yrotation Zrotation
							JOINT RightShoulder
							{
								OFFSET -15.263000 10.923401 -0.547700
								CHANNELS 3 Xrotation Yrotation Zrotation
								JOINT RightArm
								{
									OFFSET -25.438599 -2.830597 -13.032500
									CHANNELS 3 Xrotation Yrotation Zrotation
									JOINT RightForeArm
									{
										OFFSET -29.960503 0.000000 0.000000
										CHANNELS 3 Xrotation Yrotation Zrotation
										JOINT RightHand
										{
											OFFSET -27.849251 0.000000 0.000000
											CHANNELS 3 Xrotation Yrotation Zrotation
											End Site
											{
												OFFSET 0 0 0
											}
										}
									}
								}
							}
						}
					}
				}
			}
		}
	}
}
MOTION
Frames: 9
Frame Time: 0.03333333
-1.701245 93.711334 2.385727 0.000000 0.000000 0.000000 2.912644 -28.993306 1.190043 -19.101275 17.301969 13.857760 23.892618 12.123109 -1.505848 -6.535913 -3.224980 -8.272332 0.000000 0.000000 0.000000 2.912644 -28.993306 1.190043 -12.326938 -0.373917 -11.129678 16.879168 9.900356 0.865251 -8.229485 -1.386816 8.928340 0.000000 0.000000 0.000000 2.912644 -28.993306 1.190043 0.000000 0.000000 0.000000 7.836037 -0.358657 -2.682607 1.099251 -0.880570 2.383463 0.000000 0.000000 0.000000 1.108681 -0.590455 2.446367 -0.922940 3.567100 -1.380653 0.000000 0.000000 0.000000 1.108681 -0.590455 2.446367 -0.057390 -8.759444 -0.061011 -55.249745 0.330142 -41.449894 11.585941 -65.829554 13.007157 0.000000 0.000000 0.000000 1.108681 -0.590455 2.446367 4.849289 7.760151 5.560448 -0.933504 -2.176874 61.845662 11.299281 18.943444 -3.987523 0.000000 0.000000 0.000000 
-1.526989 93.632011 2.173279 0.000000 0.000000 0.000000 3.001580 -28.714194 1.140380 -19.934254 17.223982 14.115308 24.640401 13.207745 -1.486521 -6.631811 -4.675923 -8.364465 0.000000 0.000000 0.000000 3.001580 -28.714194 1.140380 -12.671632 -0.460804 -11.020461 17.286604 9.467948 0.734705 -8.342630 -1.359245 8.980487 0.000000 0.000000 0.000000 3.001580 -28.714194 1.140380 0.000000 0.000000 0.000000 7.765421 -0.351240 -2.681527 1.051469 -0.856355 2.346640 0.000000 0.000000 0.000000 1.060734 -0.578901 2.409568 -0.955177 3.583765 -1.334381 0.000000 0.000000 0.000000 1.060734 -0.578901 2.409568 -0.095201 -7.833572 -0.261091 -55.289063 1.044025 -40.597541 10.451490 -65.790431 11.849280 0.000000 0.000000 0.000000 1.060734 -0.578901 2.409568 4.852111 7.875468 5.834439 -0.731460 -2.101487 61.529991 11.542489 18.958851 -4.028576 0.000000 0.000000 0.000000 
-1.304164 93.536583 2.011684 0.000000 0.000000 0.000000 3.072730 -28.263307 1.028590 -20.943088 17.218630 14.383246 25.526162 12.395935 -1.594220 -6.792162 -4.526530 -7.993475 0.000000 0.000000 0.000000 3.072730 -28.263307 1.028590 -12.825817 -0.755741 -10.870880 17.560643 8.852455 0.463837 -8.484678 -1.298678 9.218851 0.000000 0.000000 0.000000 3.072730 -28.263307 1.028590 0.000000 0.000002 0.000000 7.669669 -0.301493 -2.603671 1.024542 -0.785728 2.316042 0.000000 0.000000 0.000000 1.032501 -0.513464 2.374547 -0.994175 3.693159 -1.307286 0.000000 0.000000 0.000000 1.032501 -0.513464 2.374547 -0.121056 -6.796881 -0.488152 -55.142938 2.029465 -39.651700 9.135334 -66.083842 10.497815 0.000000 0.000000 0.000000 1.032501 -0.513464 2.374547 4.835495 8.084639 5.913533 -0.348454 -2.133823 61.427108 11.793706 19.189410 -4.098388 0.000000 0.000000 0.000000 
-1.065888 93.437500 1.884666 0.000000 0.000000 0.000000 3.198253 -27.749985 0.927013 -22.011820 17.258508 14.670456 26.434743 12.457007 -1.625171 -6.979299 -5.348585 -7.794808 0.000000 0.000000 0.000000 3.198253 -27.749985 0.927013 -12.926710 -1.116654 -10.718822 17.718865 8.178180 0.146805 -8.607024 -1.227418 9.548026 0.000000 0.000000 0.000000 3.198253 -27.749985 0.927013 0.000000 0.000001 0.000000 7.558619 -0.231313 -2.480222 0.981919 -0.683668 2.257198 0.000000 0.000000 0.000000 0.988249 -0.419405 2.309415 -1.034513 3.968168 -1.271904 0.000000 0.000000 0.000000 0.988249 -0.419405 2.309415 -0.137809 -5.281943 -0.732836 -55.099747 2.847239 -38.843170 8.517972 -66.232235 9.832253 0.000000 0.000000 0.000000 0.988249 -0.419405 2.309415 4.823350 8.325181 6.084429 0.027500 -1.981522 61.197388 11.923155 19.091916 -4.012296 0.000000 0.000000 0.000000 
-0.777579 93.325073 1.872410 0.000000 0.000000 0.000000 3.312549 -27.122621 0.909785 -22.949147 17.380747 14.743860 27.257236 12.477570 -1.636001 -7.208021 -6.232290 -7.522419 0.000000 0.000000 0.000000 3.312549 -27.122621 0.909785 -12.978944 -1.379811 -10.775604 18.020925 7.458969 -0.133164 -8.899160 -1.206512 9.963381 0.000000 0.000000 0.000000 3.312549 -27.122621 0.909785 0.000000 -0.000001 0.000000 7.386107 -0.097692 -2.424517 0.964204 -0.486273 2.231983 0.000000 0.000000 0.000000 0.968520 -0.229712 2.272018 -0.963234 4.516588 -1.279102 0.000000 0.000000 0.000000 0.968520 -0.229712 2.272018 -0.097634 -3.831644 -0.993992 -55.094980 4.077410 -37.778507 9.204616 -66.373183 10.434457 0.000000 0.000000 0.000000 0.968520 -0.229712 2.272018 4.816399 8.501685 6.229781 0.563644 -1.726072 61.017358 12.505181 19.261127 -4.145889 0.000000 0.000000 0.000000 
-0.414578 93.221359 1.998016 0.000000 0.000000 0.000000 3.404772 -26.435465 0.937894 -23.696382 17.559043 14.587754 27.984892 12.490941 -1.622301 -7.509516 -7.113374 -7.152265 0.000000 0.000000 0.000000 3.404772 -26.435465 0.937894 -12.862129 -1.455160 -11.057827 18.192812 6.778864 -0.280233 -9.191506 -1.265233 10.437151 0.000000 0.000000 0.000000 3.404772 -26.435465 0.937894 0.000000 0.000000 0.000000 7.192803 0.095267 -2.302735 0.959409 -0.205206 2.170834 0.000000 0.000000 0.000000 0.961657 0.039521 2.194104 -0.874927 5.379019 -1.347481 0.000000 0.000000 0.000000 0.961657 0.039521 2.194104 -0.049787 -2.182468 -1.260930 -54.297798 5.181452 -35.736069 6.714773 -67.007161 7.904399 0.000000 0.000000 0.000000 0.961657 0.039521 2.194104 4.802326 8.780393 6.545480 0.892057 -1.910163 60.669702 12.855441 19.314522 -4.255131 0.000000 0.000000 0.000000 
0.017077 93.122253 2.251362 0.000000 0.000000 0.000000 3.549380 -25.554412 1.044001 -24.354616 17.748716 14.184257 28.576127 12.427394 -1.588201 -7.809346 -8.008737 -6.647649 0.000000 0.000000 0.000000 3.549380 -25.554412 1.044001 -12.847459 -1.687905 -11.445929 18.632228 5.898642 -0.615728 -9.476131 -1.293301 11.127888 0.000000 0.000000 0.000000 3.549380 -25.554412 1.044001 0.000000 0.000001 0.000000 6.925096 0.319979 -2.181074 0.952017 0.138014 2.082961 0.000000 0.000000 0.000000 0.953015 0.366747 2.086823 -0.721344 6.314967 -1.459684 0.000000 0.000000 0.000000 0.953015 0.366747 2.086823 0.036096 -0.371894 -1.530130 -53.465495 6.524814 -33.706772 4.056294 -67.682797 5.227726 0.000000 0.000000 0.000000 0.953015 0.366747 2.086823 4.778744 9.110166 6.822623 1.126980 -2.293087 60.418282 12.886384 18.974067 -4.221343 0.000000 0.000000 0.000000 
0.551798 92.979080 2.659122 0.000000 0.000000 0.000000 3.653580 -24.259657 1.290982 -24.890978 17.952824 13.382980 29.112107 12.165969 -1.546239 -8.117871 -8.971597 -5.946822 0.000000 0.000000 0.000000 3.653580 -24.259657 1.290982 -13.311266 -2.070688 -12.368446 20.237050 5.087652 -0.668867 -10.057918 -1.367637 11.741333 0.000000 0.000000 0.000000 3.653580 -24.259657 1.290982 0.000000 -0.000002 0.000000 6.666692 0.585164 -2.168808 1.005793 0.560587 1.966753 0.000000 0.000000 0.000000 1.006193 0.771802 1.948119 -0.580210 7.263624 -1.687132 0.000000 0.000000 0.000000 1.006193 0.771802 1.948119 0.074863 1.599843 -1.831800 -52.669716 8.047839 -31.831776 2.879557 -68.758695 3.972229 0.000000 0.000000 0.000000 1.006193 0.771802 1.948119 4.751154 9.365997 6.713109 1.295329 -2.883075 60.748631 12.566789 18.459647 -4.151109 0.000000 0.000000 0.000000 
1.252285 92.789261 3.177731 0.000000 0.000000 0.000000 3.647253 -22.637923 1.483959 -25.458625 18.060477 12.376510 29.933475 11.734215 -1.498214 -8.577173 -9.929855 -5.056573 0.000000 0.000000 0.000000 3.647253 -22.637923 1.483959 -14.052822 -2.655696 -13.292953 22.834197 4.151839 -0.758065 -11.122022 -1.431447 11.738256 0.000000 0.000000 0.000000 3.647253 -22.637923 1.483959 0.000000 0.000000 0.000000 6.514743 0.935198 -2.024403 1.044835 1.102455 1.783089 0.000000 0.000000 0.000000 1.047442 1.291393 1.736221 -0.405730 7.955782 -1.897903 0.000000 0.000000 0.000000 1.047442 1.291393 1.736221 0.125924 3.222994 -2.278839 -52.272213 9.680970 -30.010314 3.860603 -70.028782 4.778421 0.000000 0.000000 0.000000 1.047442 1.291393 1.736221 4.732743 9.501065 6.421025 1.729265 -3.747978 61.308236 11.955950 17.907235 -4.053589 0.000000 0.000000 0.000000 
